<svg width="81" height="80" viewBox="0 0 81 80" fill="none" xmlns="http://www.w3.org/2000/svg">
<path fill-rule="evenodd" clip-rule="evenodd" d="M47.9113 20.1038L47.9113 20.1038L47.9141 20.1016C48.0078 20.0313 48.9141 20.0079 51.5547 20L51.8725 20C54.6812 19.9997 55.2227 19.9996 55.3975 20.2528C55.4393 20.3132 55.4601 20.3881 55.4859 20.4809L55.5 20.5313C55.5469 20.7188 55.5782 23.4688 55.5782 28.5157C55.5782 33.2657 55.6094 36.3438 55.6563 36.5626C55.7032 36.7579 56.1641 37.7891 56.6953 38.8594L57.6485 40.8047L57.6719 43.6563C57.6953 46.7423 57.6875 46.8673 57.2891 47.0704C56.9532 47.2501 56.6875 47.211 56.4297 46.961L56.2032 46.7344V45.1563C56.2032 43.3907 56.1485 43.1407 55.7422 42.9766C55.5469 42.8907 55.4532 42.8907 55.2578 42.9766C54.8203 43.1563 54.7969 43.3048 54.7969 46.2501V48.9141L54.6016 49.1016C54.3203 49.3907 53.8438 49.3751 53.5391 49.0704L53.3125 48.8438V46.4532V44.0704L53.125 43.8594C52.9844 43.6954 52.875 43.6407 52.6485 43.6407C52.4219 43.6407 52.3125 43.6954 52.1719 43.8594L51.9844 44.0704V47.1485V50.2344L51.7578 50.4844C51.5625 50.7032 51.4766 50.7423 51.2031 50.7344C50.9766 50.7266 50.8203 50.6719 50.711 50.5548C50.5399 50.3915 50.5391 50.3288 50.5006 47.2772L50.5 47.2344L50.461 44.0782L50.2735 43.8751C50.0235 43.6094 49.836 43.5626 49.5547 43.6798C49.1172 43.8594 49.0938 43.9766 49.0938 46.5469V48.8829L48.8906 49.0938C48.5781 49.3985 48.086 49.3829 47.8125 49.0548L47.6094 48.8126V44.7188C47.6094 40.3907 47.6016 40.2579 47.2578 40.1251C46.9844 40.0235 46.6641 40.0782 46.4766 40.2735L46.2813 40.461V42.6797V44.9063L46.0703 44.9844C45.6953 45.1329 44.7813 45.4688 44.75 45.4688C44.6719 45.4688 44.7266 40.6876 44.8047 40.2735C44.9375 39.5626 45.211 39.1094 46.0781 38.211C46.6406 37.6172 46.9453 37.2266 47.125 36.8516L47.1497 36.8019L47.1498 36.8017L47.1499 36.8016C47.2088 36.683 47.2602 36.5797 47.305 36.4735C47.6095 35.7521 47.6095 34.9022 47.6094 28.2806V28.2806V28.2805V28.2805L47.6094 27.9063C47.6094 20.8612 47.6094 20.3724 47.8527 20.1513C47.8708 20.1349 47.8903 20.1199 47.9113 20.1038ZM22.414 41.1329C23.3047 40.2422 24.1015 39.7891 25.3828 39.4532C26.5937 39.1329 28.4062 39.2969 29.5937 39.836C31.3515 40.6329 32.7343 42.2891 33.1875 44.1485C33.7031 46.25 33.1172 48.5469 31.6797 50.086C31.3281 50.4688 31.289 50.4844 28.9765 51.336L26.6328 52.2032L25.8593 52.0782C24.5468 51.8672 23.3515 51.2657 22.4218 50.3516C21.7656 49.7032 21.3437 49.086 20.9843 48.2657C20.5859 47.3438 20.4843 46.7032 20.5156 45.4688C20.5468 44.5469 20.5781 44.3282 20.789 43.711C21.1562 42.6485 21.6015 41.9375 22.414 41.1329ZM27.6093 42.125C27.6093 42.0235 27.5078 41.836 27.3828 41.711C27.2265 41.5547 27.0703 41.4844 26.9062 41.4844C26.5937 41.4844 26.2812 41.7891 26.2812 42.0938C26.2812 42.2735 26.2343 42.336 26.1015 42.375C25.7734 42.4532 25.2187 43.0157 25.0312 43.4532C24.4609 44.7735 25.3203 46.211 26.789 46.375C27.1562 46.4219 27.3047 46.4766 27.4843 46.6563C27.6797 46.8516 27.7031 46.9219 27.664 47.211C27.6093 47.625 27.3203 47.8907 26.9453 47.8907C26.7343 47.8907 26.5859 47.8125 26.2734 47.5313C25.9218 47.2188 25.8359 47.1797 25.625 47.2188C25.3437 47.2735 25.0312 47.5938 25.0312 47.8203C25.0312 48.1953 25.6718 48.9219 26.0859 49.0313C26.2422 49.0703 26.2812 49.125 26.2812 49.3125C26.2812 49.75 26.7968 50.0469 27.2578 49.875C27.4062 49.8125 27.6093 49.4453 27.6093 49.2344C27.6093 49.1407 27.6797 49.0625 27.789 49.0313C28.0625 48.961 28.5312 48.5391 28.7656 48.1407C28.9453 47.8203 28.9765 47.6875 28.9765 47.1485C28.9765 46.6641 28.9375 46.4532 28.8047 46.211C28.4531 45.5547 27.8203 45.1485 26.9922 45.0391C26.4453 44.9688 26.2031 44.7422 26.2031 44.3125C26.2031 43.9219 26.4375 43.6172 26.7812 43.5469C27.0937 43.4922 27.3281 43.5938 27.6562 43.9532C27.914 44.2266 28.1875 44.2891 28.4765 44.1407C28.6875 44.0235 28.875 43.6172 28.8125 43.4141C28.7187 43.1094 28.3281 42.6875 27.9609 42.4922C27.6953 42.3516 27.6093 42.2579 27.6093 42.125ZM59.2734 41.5L59.0156 41.586V42.3907C59.0156 42.836 59.0312 43.2032 59.0547 43.2032C59.0703 43.2032 59.3281 43.1172 59.6172 43.0079C60.3281 42.7344 60.5 42.5625 60.5 42.1329C60.5 41.5079 60.0234 41.2657 59.2734 41.5ZM43.5234 47.3594C43.5547 47.3516 44.1328 47.1329 44.7969 46.8751C45.4609 46.6251 46.0703 46.4141 46.1484 46.4141C46.2656 46.4063 46.2812 46.4922 46.2812 47.1719V47.9454L45.2031 48.3438C44.6015 48.5704 44.0781 48.7501 44.039 48.7501C43.9922 48.7501 43.9297 48.6172 43.8984 48.4532C43.8672 48.2969 43.7578 47.9922 43.6484 47.7735C43.5469 47.5626 43.4844 47.3751 43.5234 47.3594ZM39.5547 47.3672C39.2422 47.5235 38.9688 47.7422 38.8047 47.9532C38.3359 48.5625 38.3125 48.7813 38.3125 51.9063C38.3125 54.0157 38.2812 54.8282 38.2031 55.1172C37.8594 56.4219 36.7969 57.4532 35.5156 57.7266C35.2891 57.7735 34.4844 57.8126 33.7344 57.8126H32.3594L32.1328 58.0391C31.9141 58.2579 31.9062 58.3047 31.9062 58.9454C31.9062 59.5547 31.9219 59.6329 32.1016 59.8047L32.2891 60.0001H40.5H48.7109L48.8984 59.8047C49.0781 59.6329 49.0938 59.5547 49.0938 58.9454C49.0938 58.3047 49.0859 58.2579 48.8672 58.0391L48.6406 57.8126H47.2422C45.7266 57.8126 45.2656 57.7344 44.5469 57.3751C44.0313 57.1172 43.3828 56.4688 43.125 55.9532C42.7188 55.1407 42.6875 54.8829 42.6875 51.836C42.6875 48.5625 42.6641 48.4219 42.0859 47.8047C41.4063 47.0782 40.4297 46.9063 39.5547 47.3672ZM40.8047 48.711C41.0469 48.8282 41.2266 49.2188 41.1484 49.4375C41.125 49.5079 41.0313 49.6485 40.9453 49.7422C40.6328 50.0938 40.0234 49.9219 39.8516 49.4375C39.7734 49.2266 39.9531 48.836 40.1797 48.711C40.4375 48.5703 40.5391 48.5703 40.8047 48.711ZM20.6797 55.9219C20.7734 55.836 24.4375 54.4376 28.8203 52.8126C33.2031 51.1797 36.8359 49.8516 36.8906 49.8516C36.9609 49.8438 36.9844 50.0469 36.9844 50.6172C36.9844 51.2813 36.9688 51.3985 36.8516 51.4454C35.2344 52.0782 21.4766 57.1329 21.2813 57.1641C21.0547 57.1954 20.9531 57.1641 20.75 56.9922C20.5391 56.8126 20.5 56.7344 20.5 56.4297C20.5 56.1641 20.5391 56.0469 20.6797 55.9219Z" fill="#5AFFB0"/>
<rect x="1.5" y="1" width="78" height="78" rx="7" stroke="url(#paint0_linear)" stroke-width="2"/>
<defs>
<linearGradient id="paint0_linear" x1="80.5" y1="0" x2="0.5" y2="80" gradientUnits="userSpaceOnUse">
<stop stop-color="#5AFF63"/>
<stop offset="1" stop-color="#105685"/>
</linearGradient>
</defs>
</svg>
