<svg width="120" height="120" viewBox="0 0 120 120" fill="none" xmlns="http://www.w3.org/2000/svg">
<path d="M67.125 42.125L70.725 45.725L63.525 52.925L67.075 56.475L74.275 49.275L77.875 52.875C78.65 53.65 80 53.1 80 51.975V41.25C80 40.55 79.45 40 78.75 40H68.025C66.9 40 66.35 41.35 67.125 42.125ZM51.975 40H41.25C40.55 40 40 40.55 40 41.25V51.975C40 53.1 41.35 53.65 42.125 52.85L45.725 49.25L57.5 61V77.5C57.5 78.875 58.625 80 60 80C61.375 80 62.5 78.875 62.5 77.5V60C62.5 59.35 62.225 58.7 61.775 58.225L49.275 45.7L52.875 42.1C53.65 41.35 53.1 40 51.975 40Z" fill="#5AFFB0"/>
<rect x="1" y="1" width="118" height="118" rx="7" stroke="url(#paint0_linear)" stroke-width="2"/>
<defs>
<linearGradient id="paint0_linear" x1="120" y1="0" x2="0" y2="120" gradientUnits="userSpaceOnUse">
<stop stop-color="#5AFF63"/>
<stop offset="1" stop-color="#105685"/>
</linearGradient>
</defs>
</svg>
