<svg width="120" height="120" viewBox="0 0 120 120" fill="none" xmlns="http://www.w3.org/2000/svg">
<path d="M68.0208 43.0208L71.0417 46.0417L66.5 50.5417C65.6875 51.3542 65.6875 52.6875 66.5 53.5C67.3125 54.3125 68.6458 54.3125 69.4583 53.5L73.9583 48.9583L76.9792 51.9792C77.625 52.625 78.75 52.1667 78.75 51.2292V42.2917C78.75 41.7083 78.2917 41.25 77.7083 41.25H68.7708C67.8333 41.25 67.375 42.375 68.0208 43.0208ZM43.0208 51.9792L46.0417 48.9583L50.5417 53.5C51.3542 54.3125 52.6875 54.3125 53.5 53.5C54.3125 52.6875 54.3125 51.3542 53.5 50.5417L48.9583 46.0417L51.9792 43.0208C52.625 42.375 52.1667 41.25 51.2292 41.25H42.2917C41.7083 41.25 41.25 41.7083 41.25 42.2917V51.2292C41.25 52.1667 42.375 52.625 43.0208 51.9792ZM51.9792 76.9792L48.9583 73.9583L53.5 69.4583C54.3125 68.6458 54.3125 67.3125 53.5 66.5C52.6875 65.6875 51.3542 65.6875 50.5417 66.5L46.0417 71.0417L43.0208 68.0208C42.375 67.375 41.25 67.8333 41.25 68.7708V77.7083C41.25 78.2917 41.7083 78.75 42.2917 78.75H51.2292C52.1667 78.75 52.625 77.625 51.9792 76.9792ZM76.9792 68.0208L73.9583 71.0417L69.4583 66.5C68.6458 65.6875 67.3125 65.6875 66.5 66.5C65.6875 67.3125 65.6875 68.6458 66.5 69.4583L71.0417 73.9583L68.0208 76.9792C67.375 77.625 67.8333 78.75 68.7708 78.75H77.7083C78.2917 78.75 78.75 78.2917 78.75 77.7083V68.7708C78.75 67.8333 77.625 67.375 76.9792 68.0208Z" fill="#5AFFB0"/>
<rect x="1" y="1" width="118" height="118" rx="7" stroke="url(#paint0_linear)" stroke-width="2"/>
<defs>
<linearGradient id="paint0_linear" x1="120" y1="0" x2="0" y2="120" gradientUnits="userSpaceOnUse">
<stop stop-color="#5AFF63"/>
<stop offset="1" stop-color="#105685"/>
</linearGradient>
</defs>
</svg>
