<svg width="120" height="120" viewBox="0 0 120 120" fill="none" xmlns="http://www.w3.org/2000/svg">
<path d="M70 77.4655C70 78.8595 68.875 80 67.5 80H52.5C51.125 80 50 78.8595 50 77.4655C50 76.0716 51.125 74.9311 52.5 74.9311H67.5C68.875 74.9311 70 76.0716 70 77.4655ZM57.5 49.5612V67.3277C57.5 68.7217 58.625 69.8622 60 69.8622C61.375 69.8622 62.5 68.7217 62.5 67.3277V49.5612H66.975C68.1 49.5612 68.65 48.1926 67.85 47.4069L60.875 40.3612C60.375 39.8796 59.6 39.8796 59.1 40.3612L52.15 47.4069C51.35 48.1926 51.9 49.5612 53.025 49.5612H57.5Z" fill="#5AFFB0"/>
<rect x="1" y="1" width="118" height="118" rx="7" stroke="url(#paint0_linear)" stroke-width="2"/>
<defs>
<linearGradient id="paint0_linear" x1="120" y1="0" x2="0" y2="120" gradientUnits="userSpaceOnUse">
<stop stop-color="#5AFF63"/>
<stop offset="1" stop-color="#105685"/>
</linearGradient>
</defs>
</svg>
