<svg width="81" height="80" viewBox="0 0 81 80" fill="none" xmlns="http://www.w3.org/2000/svg">
<path d="M52.84 49.8621C53.5913 48.588 54.014 47.0989 53.92 45.4608C53.7166 41.9034 51.04 38.892 47.706 38.5115C43.4485 38.0151 39.8484 41.5063 39.8484 45.9076C39.8484 50.0275 42.9946 53.3533 46.8764 53.3533C48.2538 53.3533 49.5373 52.9231 50.6174 52.1951L54.3896 56.1827C55.0001 56.828 56.0018 56.828 56.6123 56.1827C57.2227 55.5374 57.2227 54.4784 56.6123 53.8331L52.84 49.8621ZM46.892 50.0441C44.732 50.0441 42.9789 48.1909 42.9789 45.9076C42.9789 43.6242 44.732 41.7711 46.892 41.7711C49.0521 41.7711 50.8052 43.6242 50.8052 45.9076C50.8052 48.1909 49.0521 50.0441 46.892 50.0441ZM46.3286 35.9799C45.1703 36.013 44.0589 36.2778 43.0415 36.7245L42.1806 35.3512L37.3596 43.6408C36.7961 44.6004 35.5283 44.6997 34.8396 43.8559L31.5212 39.769L26.7316 47.8766C26.2463 48.6873 25.2133 48.9024 24.4776 48.3398C23.8202 47.8269 23.6323 46.8672 24.0706 46.1227L29.9873 36.1123C30.5508 35.1692 31.8186 35.0699 32.5073 35.9138L35.81 39.9841L40.7875 31.4298C41.3823 30.4039 42.7911 30.3708 43.4172 31.3801L46.3286 35.9799ZM50.3826 36.8072C49.3808 36.344 48.3008 36.0627 47.1738 35.9965L54.2801 24.0999C54.7653 23.2891 55.7984 23.0906 56.5184 23.6531C57.1914 24.1661 57.3636 25.1423 56.9253 25.8703L50.3826 36.8072Z" fill="#5AFFB0"/>
<rect x="1.5" y="1" width="78" height="78" rx="7" stroke="url(#paint0_linear)" stroke-width="2"/>
<defs>
<linearGradient id="paint0_linear" x1="80.5" y1="0" x2="0.5" y2="80" gradientUnits="userSpaceOnUse">
<stop stop-color="#5AFF63"/>
<stop offset="1" stop-color="#105685"/>
</linearGradient>
</defs>
</svg>
