<svg width="81" height="80" viewBox="0 0 81 80" fill="none" xmlns="http://www.w3.org/2000/svg">
<path fill-rule="evenodd" clip-rule="evenodd" d="M55.6515 40.2798C54.5606 39.5259 53.2727 39.0862 51.8636 39.0862C48.3636 39.0862 45.5 41.8502 45.1212 45.3681H40.3636C40.4394 44.8498 40.5 44.3316 40.5 43.7976C40.5 41.3791 39.606 39.1804 38.1667 37.5157H38.9848C40.6515 37.5157 42.0151 36.1023 42.0151 34.3748V30.7784L40.4091 29.1137L38.803 30.7784C38.5 31.0925 38.0303 31.0925 37.7273 30.7784C37.4242 30.4643 37.4242 29.9774 37.7273 29.6634L42.0151 25.2189C42.3182 24.9048 42.7879 24.9048 43.0909 25.2189C43.3939 25.533 43.3939 26.0199 43.0909 26.3339L41.4848 27.9986L43.0909 29.6634H52.6212C54.2879 29.6634 55.6515 31.0768 55.6515 32.8043V40.2798ZM46.5606 46.1533C46.5606 43.1223 48.9394 40.6567 51.8636 40.6567C54.7879 40.6567 57.1667 43.1223 57.1667 46.1533C57.1667 49.1844 54.7879 51.65 51.8636 51.65C48.9394 51.65 46.5606 49.1844 46.5606 46.1533ZM49.5909 46.1533C49.5909 47.4568 50.6061 48.5091 51.8636 48.5091C53.1212 48.5091 54.1364 47.4568 54.1364 46.1533C54.1364 44.8498 53.1212 43.7976 51.8636 43.7976C50.6061 43.7976 49.5909 44.8498 49.5909 46.1533ZM28.3788 34.3748H35.9545C35.9545 32.6473 34.5909 31.2338 32.9242 31.2338H28.3788C27.5455 31.2338 26.8636 31.9405 26.8636 32.8043C26.8636 33.6838 27.5455 34.3748 28.3788 34.3748ZM36.9394 41.2064L37.2121 41.9445L38.5909 41.3948C38.8182 42.1486 38.9849 42.9496 38.9849 43.7819C38.9849 44.787 38.7879 45.745 38.4546 46.6402L37.0909 46.012L36.7727 46.7344L38.1212 47.3626C37.3333 48.9802 36.0455 50.268 34.4394 50.9904L33.9091 49.5299L33.197 49.8125L33.7273 51.2417C33 51.4773 32.2273 51.65 31.4243 51.65C30.4546 51.65 29.5303 51.4458 28.6667 51.1003L29.2727 49.6869L28.5758 49.3571L27.9697 50.7548C26.4091 49.9382 25.1667 48.6033 24.4697 46.9386L25.8788 46.3889L25.6061 45.6508L24.2273 46.1848C24 45.4309 23.8333 44.63 23.8333 43.7976C23.8333 42.7925 24.0303 41.8345 24.3636 40.9708L25.7273 41.599L26.0455 40.8766L24.697 40.2484C25.4849 38.6308 26.7727 37.343 28.3788 36.6206L28.9091 38.0654L29.6212 37.7827L29.1061 36.3536C29.8333 36.118 30.6061 35.9453 31.4091 35.9453C32.3788 35.9453 33.3182 36.1651 34.1515 36.4949L33.5455 37.9084L34.2424 38.2382L34.8485 36.8404C36.4091 37.6571 37.6515 38.992 38.3485 40.6567L36.9394 41.2064ZM27.2121 45.6194C28.1667 48.0222 30.8333 49.153 33.1515 48.1636C35.4697 47.1584 36.5758 44.4101 35.6061 42.0073C34.6515 39.6045 31.9849 38.4737 29.6667 39.4631C27.3485 40.4525 26.2576 43.2166 27.2121 45.6194Z" fill="#5AFFB0"/>
<rect x="1.5" y="1" width="78" height="78" rx="7" stroke="url(#paint0_linear)" stroke-width="2"/>
<defs>
<linearGradient id="paint0_linear" x1="80.5" y1="0" x2="0.5" y2="80" gradientUnits="userSpaceOnUse">
<stop stop-color="#5AFF63"/>
<stop offset="1" stop-color="#105685"/>
</linearGradient>
</defs>
</svg>
