<svg width="81" height="80" viewBox="0 0 81 80" fill="none" xmlns="http://www.w3.org/2000/svg">
<path d="M48.5833 48.5833L50.9833 46.1833L42.85 38.05L37.3666 43.5333C36.7166 44.1833 35.6666 44.1833 35.0166 43.5333L25.0166 33.5166C24.3666 32.8666 24.3666 31.8166 25.0166 31.1666C25.6666 30.5166 26.7166 30.5166 27.3666 31.1666L36.1833 40L41.6666 34.5166C42.3166 33.8666 43.3666 33.8666 44.0166 34.5166L53.3333 43.8166L55.7333 41.4166C56.25 40.9 57.15 41.2666 57.15 42V49.15C57.15 49.6166 56.7833 49.9833 56.3166 49.9833H49.1666C48.4333 50 48.0666 49.1 48.5833 48.5833Z" fill="#5AFFB0"/>
<rect x="1.5" y="1" width="78" height="78" rx="7" stroke="url(#paint0_linear)" stroke-width="2"/>
<defs>
<linearGradient id="paint0_linear" x1="80.5" y1="0" x2="0.5" y2="80" gradientUnits="userSpaceOnUse">
<stop stop-color="#5AFF63"/>
<stop offset="1" stop-color="#105685"/>
</linearGradient>
</defs>
</svg>
