<svg width="120" height="120" viewBox="0 0 120 120" fill="none" xmlns="http://www.w3.org/2000/svg">
<path d="M47.9689 71.5651L47.861 82.6429C47.8719 83.4183 48.4813 84.0278 49.2568 84.0387L60.3346 83.9308C61.5874 83.9362 62.2216 82.3977 61.3566 81.5327L57.8179 77.994L69.9089 65.9029C71.0155 64.7964 71.0361 63.0064 69.9548 61.9252C68.8736 60.8439 67.0836 60.8646 65.9771 61.9711L53.886 74.0621L50.367 70.5431C49.4823 69.6584 47.9634 70.3123 47.9689 71.5651ZM70.8498 36.0629L59.772 36.1708C58.5192 36.1653 57.885 37.7039 58.75 38.5689L62.269 42.0879L50.1578 54.1991C49.0513 55.3056 49.0307 57.0956 50.1119 58.1769C51.1932 59.2581 52.9832 59.2375 54.0897 58.131L66.1808 46.0399L69.6998 49.5589C70.5844 50.4436 72.1033 49.7897 72.0979 48.537L72.2058 37.4591C72.2347 36.6833 71.6055 36.0542 70.8498 36.0629Z" fill="#5AFFB0"/>
<rect x="1" y="1" width="118" height="118" rx="7" stroke="url(#paint0_linear)" stroke-width="2"/>
<defs>
<linearGradient id="paint0_linear" x1="120" y1="0" x2="0" y2="120" gradientUnits="userSpaceOnUse">
<stop stop-color="#5AFF63"/>
<stop offset="1" stop-color="#105685"/>
</linearGradient>
</defs>
</svg>
