<svg width="40" height="41" viewBox="0 0 40 41" fill="none" xmlns="http://www.w3.org/2000/svg">
<path fill-rule="evenodd" clip-rule="evenodd" d="M4 0.5C1.79086 0.5 0 2.29086 0 4.5V36.5C0 38.7091 1.79086 40.5 4 40.5H36C38.2091 40.5 40 38.7091 40 36.5V4.5C40 2.29086 38.2091 0.5 36 0.5H4ZM21.7561 27.6429C22.0518 27.6429 22.3359 27.5283 22.5489 27.3232L31.0781 19.1086C31.5413 18.6625 31.5454 17.9222 31.0871 17.4711L27.2423 13.6856C26.8009 13.2511 26.0938 13.2472 25.6477 13.6768L19.3427 19.7492C19.1297 19.9543 18.8456 20.0689 18.5499 20.0689H9.71427C9.08309 20.0689 8.57141 20.5806 8.57141 21.2118V26.5C8.57141 27.1312 9.08309 27.6429 9.71427 27.6429L21.7561 27.6429Z" fill="url(#paint0_linear)"/>
<defs>
<linearGradient id="paint0_linear" x1="40" y1="0.5" x2="0" y2="40.5" gradientUnits="userSpaceOnUse">
<stop stop-color="#5AFF63"/>
<stop offset="1" stop-color="#105685"/>
</linearGradient>
</defs>
</svg>
